<svg width="31" height="39" viewBox="0 0 31 39" fill="none" xmlns="http://www.w3.org/2000/svg">
<path d="M28.2736 29.5039C26.9904 28.1597 26.4063 26.6124 26.7517 24.7281C27.0378 23.1672 27.2291 21.5912 27.4492 20.022C27.6269 18.7473 27.6405 17.4743 27.2663 16.2351C26.7026 14.3543 25.7157 12.6936 24.3935 11.2599C22.6262 9.34355 20.3932 8.22119 17.8404 7.75397C16.4844 7.50681 15.1183 7.4374 13.7369 7.62362C11.4447 7.93172 9.41663 8.80188 7.6644 10.3068C6.41675 11.3767 5.43659 12.6735 4.54782 14.0464C4.11444 14.7134 3.71153 15.399 3.24769 16.044C2.51129 17.0665 1.58361 17.8909 0.517065 18.5613C0.0887677 18.8305 -0.0686866 19.2368 0.0582928 19.6668C0.288524 20.4472 1.03846 20.6977 1.76978 20.2339C3.13085 19.3722 4.27015 18.2786 5.17249 16.9395C5.86147 15.917 6.48614 14.8421 7.2175 13.85C9.22018 11.1414 11.8507 9.59076 15.5856 9.62968C16.8688 9.5992 18.3771 9.86837 19.7941 10.5218C21.9085 11.4969 23.4557 13.0747 24.5664 15.1061C25.2994 16.4502 25.6194 17.8587 25.4078 19.3789C25.186 20.9702 24.9439 22.5548 24.7408 24.1513C24.646 24.9147 24.5325 25.6935 24.5799 26.4603C24.6798 27.9992 25.3688 29.3213 26.3524 30.4826C26.8077 31.0193 27.2936 31.5406 27.8218 32.0045C28.355 32.4683 29.1303 32.277 29.3995 31.6541C29.6111 31.1598 29.4249 30.7315 29.088 30.3624C28.8239 30.0712 28.5412 29.7986 28.2687 29.5176L28.2736 29.5039Z" fill="white"/>
<path d="M16.5558 28.1699C17.5699 27.0002 18.4925 25.7779 19.2509 24.4304C19.9061 23.264 20.3564 22.0298 20.3953 20.8212C20.3614 19.2823 19.945 18.0127 19.0952 16.9038C18.1726 15.6951 16.8894 15.0874 15.3979 15.084C13.7863 15.084 12.4422 15.7781 11.3757 16.9953C10.8086 17.6453 10.4226 18.4088 10.0705 19.1842C9.34593 20.7704 8.39284 22.1958 7.17904 23.4485C5.92632 24.7436 4.50935 25.8456 3.04844 26.8935C2.2206 27.4877 1.37587 28.0633 0.548073 28.6609C0.283981 28.8522 0.0503827 29.0858 0.019873 29.4413C-0.013985 29.9051 0.153609 30.2776 0.556524 30.5078C0.967894 30.7414 1.37587 30.6551 1.74324 30.3859C3.51059 29.0807 5.29658 27.7992 7.03 26.4517C8.41646 25.3733 9.61674 24.0935 10.519 22.5817C11.1826 21.4729 11.7853 20.3285 12.3947 19.1892C12.8451 18.3445 13.4528 17.6775 14.3788 17.3694C15.4013 17.0308 16.3848 17.1222 17.1653 17.9111C18.2233 18.981 18.4874 20.2997 18.1319 21.7472C17.8678 22.8222 17.2736 23.7414 16.6676 24.6471C15.8262 25.8947 14.8562 27.0391 13.7812 28.0921C12.5556 29.2923 11.3418 30.5146 10.0416 31.6285C8.53833 32.9151 6.94706 34.1035 5.39626 35.3342C5.27437 35.429 5.16603 35.5509 5.07969 35.6813C4.85454 36.0232 4.94088 36.6005 5.24898 36.8985C5.62649 37.2675 6.15976 37.3538 6.52709 37.0627C7.88308 36.0131 9.25264 34.9737 10.5799 33.8902C12.7163 32.1432 14.7308 30.2674 16.544 28.1735L16.5558 28.1699Z" fill="white"/>
<path d="M26.2443 32.8928C25.5773 32.6118 24.9441 32.2817 24.4634 31.7264C23.3884 30.4822 23.0075 28.984 22.8856 27.3875C22.7823 25.979 23.1582 24.6264 23.3935 23.2569C23.5966 22.0786 23.8743 20.9122 23.8709 19.7035C23.837 19.2363 23.837 18.7623 23.7625 18.3001C23.3901 15.9419 22.1932 14.0831 20.221 12.7746C18.3961 11.5658 16.3765 10.9767 14.1538 11.3407C12.1646 11.6657 10.448 12.5274 9.03948 13.9714C7.912 15.1192 7.09773 16.4769 6.44429 17.9361C6.14464 18.5997 5.7722 19.2142 5.28635 19.7695C3.90834 21.3338 2.3272 22.6559 0.580306 23.7918C0.116463 24.0948 -0.103606 24.6196 0.0470355 25.0784C0.202783 25.5338 0.68865 25.8453 1.19141 25.7454C1.43011 25.698 1.65018 25.5456 1.86349 25.4204C3.16869 24.6399 4.33846 23.6818 5.44392 22.6559C6.61369 21.5674 7.6362 20.3587 8.28627 18.8723C8.88385 17.5028 9.6778 16.2636 10.7782 15.2326C12.3949 13.7243 14.279 13.0793 16.4762 13.4466C17.9456 13.6887 19.1594 14.4133 20.1684 15.4832C21.0402 16.4058 21.6327 17.4808 21.6987 18.7724C21.7597 19.9862 21.6987 21.2 21.4431 22.4003C21.2044 23.5396 20.9928 24.689 20.8319 25.8419C20.5899 27.5923 20.9352 29.275 21.565 30.9037C22.3792 33.0232 23.9147 34.3792 26.0595 35.0733C26.4878 35.2121 26.9703 35.0123 27.2293 34.6094C27.49 34.2065 27.4934 33.7511 27.1429 33.4261C26.8924 33.1959 26.5674 33.0266 26.2457 32.8928H26.2443Z" fill="white"/>
<path d="M1.37331 14.7387C1.77621 14.7945 2.11477 14.6608 2.3484 14.3222C2.60403 13.9498 2.83426 13.5638 3.08142 13.1863C4.07346 11.683 5.17887 10.2695 6.5044 9.04721C8.25485 7.43899 10.3269 6.47741 12.6714 6.0745C14.4573 5.7664 16.2518 5.73254 18.0327 6.05757C20.8107 6.56883 23.1942 7.89942 25.2445 9.80221C26.0808 10.5776 26.7833 11.4968 27.5586 12.3415C27.7415 12.5362 27.9531 12.736 28.1952 12.8392C28.5981 13.0119 28.9401 12.7952 29.2261 12.5227C29.5173 12.245 29.5952 11.898 29.4479 11.5255C29.3616 11.3089 29.2363 11.1057 29.0924 10.9195C27.7753 9.186 26.2314 7.6912 24.4202 6.4826C22.1703 4.9793 19.692 4.09057 16.9969 3.80784C15.2854 3.63008 13.5823 3.75536 11.9047 4.10748C9.52617 4.60517 7.34555 5.54135 5.49026 7.14619C3.52312 8.84585 2.00123 10.9044 0.667209 13.1186C0.558865 13.2963 0.51993 13.5181 0.458984 13.6823C0.489456 13.838 0.497921 13.9515 0.533473 14.0463C0.675673 14.4356 0.958386 14.6794 1.37483 14.7404L1.37331 14.7387Z" fill="white"/>
<path d="M3.25377 7.32883C3.53479 7.19509 3.78197 6.96486 3.99866 6.73125C5.02624 5.63428 6.16047 4.68965 7.49614 3.97861C9.91356 2.69542 12.5021 2.13676 15.7745 2.12831C16.5245 2.11138 17.8076 2.25866 19.0807 2.51428C21.0614 2.90872 22.9168 3.63157 24.6149 4.73365C25.2734 5.15856 25.893 5.64443 26.5397 6.08626C26.9782 6.3859 27.5097 6.29449 27.8619 5.89158C28.2089 5.49714 28.2207 4.9385 27.8568 4.56098C27.6012 4.29182 27.3201 4.04466 27.0154 3.82459C24.576 2.05216 21.876 0.860377 18.8948 0.371095C17.7724 0.188262 16.6365 0.0460619 15.5057 0.00712735C14.1226 -0.0402754 12.7446 0.154406 11.3835 0.423577C8.66139 0.965298 6.1999 2.07414 4.02131 3.79577C3.27985 4.38152 2.57392 5.00108 2.06267 5.81028C1.80196 6.21826 1.83243 6.68548 2.12361 7.04098C2.39616 7.37956 2.8431 7.53022 3.26291 7.33216L3.25377 7.32883Z" fill="white"/>
<path d="M14.7646 23.5752C15.3537 22.7 15.848 21.7588 16.3034 20.8108C16.6454 20.0964 16.1206 19.3888 15.3453 19.3938C14.9068 19.3938 14.6004 19.5665 14.426 19.9576C13.6896 21.6081 12.6671 23.0741 11.5143 24.4608C9.56913 26.8003 7.36333 28.8691 4.9525 30.7226C4.09081 31.3862 3.21392 32.0312 2.34378 32.6864C1.94426 32.986 1.78854 33.4617 1.94426 33.8781C2.1271 34.364 2.5334 34.6704 3.03278 34.5976C3.2884 34.5587 3.5491 34.4114 3.75734 34.2506C5.38757 32.9759 7.03813 31.7282 8.61939 30.3976C10.9776 28.4136 13.0446 26.1417 14.7694 23.5806L14.7646 23.5752Z" fill="white"/>
<path d="M30.6351 17.5912C30.4929 16.633 30.2237 15.6969 29.7937 14.8183C29.5719 14.3629 29.0793 14.1733 28.5968 14.3324C28.05 14.5152 27.7826 14.9182 27.8909 15.4548C27.9383 15.6935 28.0382 15.9186 28.1211 16.1489C28.9405 18.4021 28.8745 20.7383 28.7272 23.066C28.6493 24.3018 28.3547 25.519 28.138 26.7446C27.9958 27.5589 28.6713 28.2276 29.4602 28.0007C29.9376 27.867 30.1407 27.4759 30.2406 27.0172C30.652 25.067 30.9245 23.0998 30.9211 21.1024C30.9465 21.1024 30.9736 21.0974 30.999 21.094C30.8822 19.9242 30.8043 18.7493 30.63 17.5931L30.6351 17.5912Z" fill="white"/>
<path d="M16.9279 35.2934C15.9612 33.7935 13.8502 33.052 12.0827 34.2049C11.0941 34.8465 10.2104 35.5964 9.48246 36.5241C9.32671 36.7188 9.26069 36.988 9.15234 37.2216C9.22683 37.6854 9.45537 38.0443 9.81086 38.1797C10.2392 38.3439 10.6946 38.2441 10.9942 37.919C11.6493 37.2165 12.2994 36.5156 13.1306 35.9993C13.9364 35.4965 14.5729 35.7081 15.0943 36.3463C15.5362 36.8881 15.7664 37.5381 15.978 38.1882C16.1642 38.7553 16.6721 39.1024 17.1783 38.9686C17.8233 38.7993 18.128 38.3236 17.9587 37.682C17.7369 36.8322 17.4 36.0348 16.9227 35.2934L16.9279 35.2934Z" fill="white"/>
<path d="M22.1398 35.8131C21.6201 35.3543 21.0783 34.9074 20.606 34.3995C19.2111 32.9047 18.6897 31.2135 19.592 29.2549C19.6529 29.1245 19.6563 28.9739 19.6749 28.9045C19.6749 28.3153 19.4109 27.9734 18.8945 27.821C18.5001 27.7042 17.9719 27.9209 17.7468 28.3323C17.1492 29.4327 16.897 30.616 17.0967 31.8518C17.4996 34.3352 19.008 36.0907 20.9717 37.516C21.2663 37.7276 21.6268 37.7547 21.9468 37.5719C22.3108 37.3637 22.5748 37.0742 22.5325 36.6018C22.5021 36.2853 22.3853 36.0263 22.1432 35.8096L22.1398 35.8131Z" fill="white"/>
</svg>
