<svg width="32" height="32" viewBox="0 0 32 32" fill="none" xmlns="http://www.w3.org/2000/svg">
<path d="M6 22C6 21.4475 6.44749 21 7 21H9C9.55251 21 10 21.4475 10 22C10 22.5525 9.55251 23 9 23H7C6.44749 23 6 22.5525 6 22ZM12 23H13C13.5525 23 14 22.5525 14 22C14 21.4475 13.5525 21 13 21H12C11.4475 21 11 21.4475 11 22C11 22.5525 11.4475 23 12 23ZM30 9V23C30 24.6538 28.6538 26 27 26H5C3.34624 26 2 24.6538 2 23V9C2 7.34624 3.34624 6 5 6H27C28.6538 6 30 7.34624 30 9ZM28 16.6589H4V23C4 23.5513 4.44874 24 5 24H27C27.5513 24 28 23.5513 28 23V16.6589ZM28 12.6589H4V14.6589H28V12.6589ZM28 9C28 8.44874 27.5513 8 27 8H5C4.44874 8 4 8.44874 4 9V10.6588H28V9Z" fill="#5659FE"/>
</svg>
