<svg width="18" height="18" viewBox="0 0 18 18" fill="none" xmlns="http://www.w3.org/2000/svg">
<path d="M7.44247 2.56807C7.44247 1.14985 6.29262 0 4.8744 0H2.56807C1.14985 0 0 1.14985 0 2.56807V4.8744C0 6.29283 1.14985 7.44247 2.56807 7.44247H4.8744C6.29262 7.44247 7.44247 6.29283 7.44247 4.8744V2.56807Z" fill="#5659FE"/>
<path d="M17.9991 2.56807C17.9991 1.14985 16.8493 0 15.431 0H13.1247C11.7065 0 10.5566 1.14985 10.5566 2.56807V4.8744C10.5566 6.29283 11.7065 7.44247 13.1247 7.44247H15.431C16.8493 7.44247 17.9991 6.29283 17.9991 4.8744V2.56807Z" fill="#5659FE"/>
<path d="M7.44247 12.6978C7.44247 11.2794 6.29262 10.1295 4.8744 10.1295H2.56807C1.14985 10.1295 0 11.2794 0 12.6978V15.0041C0 16.4223 1.14985 17.5722 2.56807 17.5722H4.8744C6.29262 17.5722 7.44247 16.4223 7.44247 15.0041V12.6978Z" fill="#5659FE"/>
<path d="M17.9991 12.6978C17.9991 11.2794 16.8493 10.1295 15.431 10.1295H13.1247C11.7065 10.1295 10.5566 11.2794 10.5566 12.6978V15.0041C10.5566 16.4223 11.7065 17.5722 13.1247 17.5722H15.431C16.8493 17.5722 17.9991 16.4223 17.9991 15.0041V12.6978Z" fill="#5659FE"/>
</svg>
