<svg width="32" height="32" viewBox="0 0 32 32" fill="none" xmlns="http://www.w3.org/2000/svg">
<path d="M22.0787 8.0003C21.9567 8.00336 21.8369 8.03285 21.728 8.08661C21.5924 8.15389 21.4785 8.25653 21.399 8.38313C21.3195 8.50973 21.2775 8.65535 21.2777 8.80382V10.9398H13.9639C13.7466 10.9406 13.5384 11.0252 13.3848 11.1751C13.2311 11.3251 13.1444 11.5282 13.1436 11.7402C13.1444 11.9522 13.2311 12.1553 13.3848 12.3052C13.5384 12.4552 13.7466 12.5397 13.9639 12.5406H22.1044C22.3217 12.5397 22.5299 12.4551 22.6835 12.3052C22.8372 12.1553 22.9239 11.9522 22.9247 11.7402V10.3874L27.7824 13.8699L22.9247 17.3508V16.0058C22.9256 15.7927 22.8396 15.588 22.6858 15.4367C22.5319 15.2855 22.3228 15.2 22.1044 15.1991H18.0317H13.9639H10.718V13.0695C10.7184 12.9207 10.6766 12.7748 10.597 12.6479C10.5175 12.521 10.4035 12.4181 10.2676 12.3507C10.1318 12.2844 9.97979 12.2561 9.8285 12.2688C9.6772 12.2816 9.53246 12.3349 9.41026 12.4229L2.33455 17.4873C2.23081 17.562 2.14649 17.6595 2.08838 17.7718C2.03027 17.8841 2 18.0081 2 18.1339C2 18.2597 2.03027 18.3838 2.08838 18.4961C2.14649 18.6084 2.23081 18.7058 2.33455 18.7805L9.41026 23.8465C9.5329 23.9335 9.67774 23.9857 9.82884 23.9975C9.97994 24.0092 10.1314 23.9801 10.2667 23.9132C10.4019 23.8464 10.5155 23.7444 10.5952 23.6185C10.6748 23.4927 10.7173 23.3478 10.718 23.2V21.0703H18.0317C18.1404 21.0707 18.2481 21.0501 18.3486 21.0097C18.4491 20.9693 18.5404 20.9099 18.6173 20.8349C18.6941 20.7599 18.755 20.6708 18.7964 20.5728C18.8378 20.4747 18.8589 20.3697 18.8585 20.2636C18.8581 20.1581 18.8363 20.0537 18.7946 19.9563C18.7528 19.859 18.6918 19.7707 18.615 19.6963C18.5382 19.622 18.4472 19.5632 18.3471 19.5232C18.2471 19.4832 18.1399 19.4628 18.0317 19.4632H9.89763C9.68034 19.4641 9.47219 19.5487 9.31854 19.6986C9.16488 19.8485 9.07818 20.0516 9.07731 20.2636V21.6164L4.21326 18.1339L9.07731 14.653V16.0058C9.07818 16.2178 9.16488 16.4209 9.31854 16.5708C9.47219 16.7208 9.68034 16.8054 9.89763 16.8062H13.9639H18.0317H21.2777V18.9359C21.2768 19.085 21.3184 19.2314 21.3979 19.3587C21.4775 19.486 21.5917 19.5892 21.7279 19.6568C21.8641 19.7244 22.0169 19.7536 22.1692 19.7414C22.3214 19.7291 22.4672 19.6757 22.5902 19.5872L29.6611 14.5227C29.7661 14.4482 29.8515 14.3504 29.9104 14.2375C29.9693 14.1246 30 13.9997 30 13.873C30 13.7463 29.9693 13.6214 29.9104 13.5085C29.8515 13.3956 29.7661 13.2978 29.6611 13.2233L22.5902 8.15724C22.4424 8.05072 22.2623 7.99548 22.0787 8.0003Z" fill="#5659FE"/>
</svg>
