<svg width="24" height="24" viewBox="0 0 24 24" fill="none" xmlns="http://www.w3.org/2000/svg">
<path fill-rule="evenodd" clip-rule="evenodd" d="M19.2472 4H4.73034C3.78652 4 3 4.76404 3 5.73034V19.2135C3 20.1573 3.76405 20.9438 4.73034 20.9438H19.2697C20.2135 20.9438 21 20.1798 21 19.2135V5.73034C20.9775 4.78652 20.2135 4 19.2472 4ZM6.73034 11.1685C6.73034 11.4382 6.93258 11.6404 7.20225 11.6404H16.1011C16.2809 11.6404 16.4607 11.5281 16.5281 11.3483C16.5955 11.1685 16.5506 10.9663 16.4157 10.8315L13.8989 8.31461C13.6966 8.13483 13.4045 8.13483 13.2247 8.31461C13.0449 8.51685 13.0449 8.80899 13.2247 8.98876L14.9326 10.6966H7.20225C6.93258 10.6966 6.73034 10.8989 6.73034 11.1685ZM9.47191 13.7079H17.2022C17.4494 13.7079 17.6742 13.4831 17.6517 13.236C17.6517 12.9663 17.4494 12.764 17.1798 12.764H8.32584C8.14607 12.764 7.96629 12.8764 7.89888 13.0562C7.83146 13.236 7.8764 13.4382 8.01124 13.573L10.5056 16.0899C10.5955 16.1798 10.7303 16.2247 10.8427 16.2247C10.9775 16.2247 11.0899 16.1798 11.1798 16.0899C11.3596 15.8876 11.3596 15.5955 11.1798 15.4157L9.47191 13.7079Z" fill="#5659FE"/>
</svg>
