<svg width="32" height="32" viewBox="0 0 32 32" fill="none" xmlns="http://www.w3.org/2000/svg">
<g clip-path="url(#clip0_1_13346)">
<path d="M10.625 13.0074C10.625 17.1021 13.9538 20.4308 18.0485 20.4308C22.1432 20.4308 25.472 17.1021 25.472 13.0074C25.472 8.9127 22.1432 5.58392 18.0485 5.58392C13.9538 5.58392 10.625 8.9127 10.625 13.0074ZM19.4625 9.85536H16.6345C17.0175 8.08787 17.6361 7.08629 18.0485 7.08629C18.4609 7.08629 19.0795 8.11733 19.4625 9.85536ZM23.9696 13.0074C23.9696 13.5671 23.8812 14.1268 23.734 14.657H21.2005C21.2595 14.1268 21.2889 13.5671 21.2889 13.0074C21.2889 12.4477 21.2595 11.9174 21.2005 11.3577H23.7045C23.8812 11.888 23.9696 12.4477 23.9696 13.0074ZM19.7865 13.0074C19.7865 13.5965 19.7571 14.1268 19.6982 14.657H16.3988C16.3399 14.1563 16.3105 13.5965 16.3105 13.0074C16.3105 12.4182 16.3399 11.888 16.3988 11.3577H19.6982C19.7571 11.888 19.7865 12.4182 19.7865 13.0074ZM18.0485 18.9285C17.6361 18.9285 17.0175 17.8974 16.6345 16.1594H19.4625C19.0795 17.8974 18.4609 18.9285 18.0485 18.9285ZM12.1274 13.0074C12.1274 12.4477 12.2157 11.888 12.363 11.3577H14.867C14.8375 11.9174 14.8081 12.4477 14.8081 13.0074C14.8081 13.5671 14.8375 14.0973 14.8965 14.657H12.3925C12.2157 14.1268 12.1274 13.5671 12.1274 13.0074ZM15.7802 7.52816C15.4856 8.2057 15.25 9.00107 15.0732 9.85536H13.0111C13.6887 8.82432 14.6608 7.99949 15.7802 7.52816ZM13.0406 16.1594H15.1027C15.2794 17.0137 15.4856 17.8091 15.8097 18.4866C14.6608 18.0153 13.6887 17.1904 13.0406 16.1594ZM20.3168 18.4866C20.6114 17.8091 20.847 17.0137 21.0238 16.1594H23.0859C22.4083 17.1904 21.4362 18.0153 20.3168 18.4866ZM23.0564 9.85536H20.9943C20.8176 9.00107 20.6114 8.2057 20.2873 7.52816C21.4362 7.99949 22.4083 8.82432 23.0564 9.85536Z" fill="#5659FE"/>
<path d="M13.6592 22.5518C9.91796 20.8727 7.50237 17.102 7.50237 13.0074C7.50237 7.41031 11.8622 2.84429 17.3709 2.49079L16.7523 3.10942C16.4577 3.404 16.4577 3.87533 16.7523 4.16991C16.8996 4.3172 17.0763 4.37612 17.2825 4.37612C17.4887 4.37612 17.6655 4.3172 17.8128 4.16991L19.757 2.22567C20.0516 1.93109 20.0516 1.45976 19.757 1.16518L17.8128 -0.779064C17.5182 -1.07365 17.0469 -1.07365 16.7523 -0.779064C16.4577 -0.484482 16.4577 -0.0131509 16.7523 0.281431L17.4298 0.958969C11.0668 1.31247 6 6.55602 6 13.0074C6 17.7207 8.76908 21.9921 13.0111 23.9363C13.0995 23.9953 13.2173 23.9953 13.3351 23.9953C13.6297 23.9953 13.8948 23.8185 14.0127 23.5534C14.1894 23.1704 14.0127 22.7286 13.6592 22.5518Z" fill="#5659FE"/>
<path d="M30.0971 13.0073C30.0971 8.29404 27.328 4.02261 23.086 2.07837C22.7031 1.90162 22.2612 2.07837 22.0845 2.46132C21.9077 2.84428 22.0845 3.28615 22.4674 3.4629C26.1792 5.14202 28.5947 8.91266 28.5947 13.0073C28.5947 18.6044 24.2349 23.1704 18.7262 23.5239L19.3448 22.9053C19.6394 22.6107 19.6394 22.1394 19.3448 21.8448C19.0502 21.5502 18.5789 21.5502 18.2843 21.8448L16.3401 23.789C16.0455 24.0836 16.0455 24.555 16.3401 24.8495L18.2843 26.7938C18.4316 26.9411 18.6378 27 18.8146 27C19.0208 27 19.1975 26.9411 19.3448 26.7938C19.6394 26.4992 19.6394 26.0279 19.3448 25.7333L18.6673 25.0557C25.0303 24.7022 30.0971 19.4587 30.0971 13.0073Z" fill="#5659FE"/>
</g>
<defs>
<clipPath id="clip0_1_13346">
<rect width="32" height="32" fill="white"/>
</clipPath>
</defs>
</svg>
