<svg width="22" height="24" viewBox="0 0 22 24" fill="none" xmlns="http://www.w3.org/2000/svg">
<path d="M14.8197 14.676C14.6544 14.676 14.4892 14.7425 14.379 14.8635C13.3383 15.9458 12.2181 16.49 11.049 16.49H11.0429C9.04118 16.484 7.48637 14.8816 7.468 14.8695C7.3517 14.7486 7.19254 14.676 7.02115 14.676C3.14636 14.676 0 18.3342 0 22.8329C0 23.4739 0.489705 23.9999 1.08959 23.9999H21.0634C21.5776 23.9999 22 23.5585 22 23.0143C21.9939 18.4189 18.7741 14.676 14.8197 14.676ZM1.21814 22.7967C1.23651 19.078 3.69727 16.0486 6.77017 15.8914C7.32109 16.3993 8.93712 17.6873 11.0184 17.6993C11.0245 17.6993 11.0367 17.6993 11.0429 17.6993C12.4814 17.6993 13.8342 17.0886 15.0707 15.8914C18.1742 16.0486 20.6717 19.0659 20.7696 22.7906H1.21814V22.7967Z" fill="#5659FE"/>
<path d="M5.67596 10.0746C7.63478 14.4403 10.5363 14.6035 10.9709 14.6035C10.9893 14.6035 10.9954 14.6035 11.0137 14.6035C11.4484 14.6035 14.3499 14.4342 16.3087 10.0746C16.6331 9.89319 17.0249 9.45178 17.2636 8.42385C17.3799 7.94012 17.3983 7.4443 17.3187 6.97871C17.2391 6.51916 17.0922 6.23497 16.9208 6.06567C16.8902 5.16472 16.6637 2.90932 15.1762 1.40371C14.2336 0.448336 12.9603 -0.0112082 11.43 0.00088505C11.1362 0.00693169 10.8423 0.00693169 10.5485 0.00088505C9.00595 -0.0233015 7.74496 0.448336 6.80228 1.40371C5.32092 2.90932 5.08831 5.16472 5.05771 6.06567C4.88631 6.23497 4.7394 6.51916 4.65982 6.97871C4.58024 7.4443 4.59861 7.94617 4.71491 8.4299C4.96589 9.45178 5.35765 9.88714 5.67596 10.0746ZM5.87796 7.17825C5.89633 7.08755 5.90857 7.02103 5.92081 6.97871C5.98202 6.94847 6.04324 6.91219 6.09833 6.86382C6.22688 6.74289 6.29421 6.57963 6.28809 6.40428C6.28809 6.38009 6.20851 3.73771 7.68987 2.24419C8.3877 1.54278 9.33038 1.17998 10.5363 1.21021C10.8423 1.21626 11.1484 1.21626 11.4545 1.21021C12.6359 1.18603 13.6031 1.54278 14.3009 2.24419C15.7822 3.73771 15.7027 6.38009 15.7027 6.40428C15.6965 6.57963 15.7639 6.74289 15.8924 6.86382C15.9414 6.91219 16.0026 6.95452 16.0699 6.97871C16.0822 7.02103 16.1006 7.08755 16.1128 7.17825C16.1679 7.48663 16.1556 7.82524 16.0761 8.15176C15.9353 8.74433 15.7761 8.94991 15.721 9.01038C15.5313 9.05271 15.366 9.17969 15.2864 9.36713C13.5663 13.4002 11.1239 13.4063 11.0137 13.4002C11.0015 13.4002 10.9831 13.4002 10.9709 13.4002C10.873 13.4002 8.41831 13.4123 6.69822 9.36713C6.61864 9.18573 6.45949 9.05271 6.2636 9.01038C6.20851 8.94991 6.04936 8.74433 5.90857 8.1578C5.84123 7.82524 5.82899 7.48663 5.87796 7.17825Z" fill="#5659FE"/>
</svg>
