<svg width="64" height="64" viewBox="0 0 64 64" fill="none" xmlns="http://www.w3.org/2000/svg">
<g clip-path="url(#clip0_1_13977)">
<rect width="64" height="64" rx="32" fill="#F7F7F9"/>
<path d="M33.6367 23.9375L33.4844 36.1836H31.5273L31.3633 23.9375H33.6367ZM31.293 39.9102C31.293 39.5586 31.3984 39.2617 31.6094 39.0195C31.8281 38.7773 32.1484 38.6562 32.5703 38.6562C32.9844 38.6562 33.3008 38.7773 33.5195 39.0195C33.7461 39.2617 33.8594 39.5586 33.8594 39.9102C33.8594 40.2461 33.7461 40.5352 33.5195 40.7773C33.3008 41.0195 32.9844 41.1406 32.5703 41.1406C32.1484 41.1406 31.8281 41.0195 31.6094 40.7773C31.3984 40.5352 31.293 40.2461 31.293 39.9102Z" fill="white"/>
<path d="M36.7596 35.5682C36.5392 35.5682 36.3189 35.6569 36.172 35.8181C34.7845 37.2612 33.2909 37.9868 31.732 37.9868H31.7238C29.0549 37.9788 26.9818 35.8423 26.9573 35.8262C26.8023 35.6649 26.5901 35.5682 26.3615 35.5682C21.1951 35.5682 17 40.4458 17 46.4441C17 47.2987 17.6529 48.0001 18.4528 48.0001H45.0846C45.7702 48.0001 46.3333 47.4115 46.3333 46.6859C46.3252 40.5587 42.0321 35.5682 36.7596 35.5682ZM18.6242 46.3957C18.6487 41.4374 21.9297 37.3983 26.0269 37.1887C26.7615 37.8659 28.9162 39.5831 31.6912 39.5993C31.6993 39.5993 31.7156 39.5993 31.7238 39.5993C33.6418 39.5993 35.4456 38.785 37.0942 37.1887C41.2322 37.3983 44.5622 41.4213 44.6928 46.3876H18.6242V46.3957Z" fill="#5659FE"/>
<path d="M24.5679 29.4328C27.1797 35.2537 31.0484 35.4714 31.6279 35.4714C31.6523 35.4714 31.6605 35.4714 31.685 35.4714C32.2645 35.4714 36.1331 35.2456 38.7449 29.4328C39.1775 29.1909 39.6998 28.6024 40.0181 27.2318C40.1732 26.5868 40.1977 25.9257 40.0916 25.3049C39.9855 24.6922 39.7896 24.3133 39.5611 24.0876C39.5203 22.8863 39.2183 19.8791 37.235 17.8716C35.9781 16.5978 34.2804 15.9851 32.24 16.0012C31.8482 16.0092 31.4565 16.0092 31.0647 16.0012C29.0079 15.9689 27.3266 16.5978 26.0697 17.8716C24.0946 19.8791 23.7844 22.8863 23.7436 24.0876C23.5151 24.3133 23.3192 24.6922 23.2131 25.3049C23.107 25.9257 23.1315 26.5949 23.2865 27.2399C23.6212 28.6024 24.1435 29.1829 24.5679 29.4328ZM24.8373 25.571C24.8618 25.4501 24.8781 25.3614 24.8944 25.3049C24.976 25.2646 25.0576 25.2163 25.1311 25.1518C25.3025 24.9905 25.3923 24.7728 25.3841 24.539C25.3841 24.5068 25.278 20.9836 27.2532 18.9923C28.1836 18.057 29.4405 17.5733 31.0484 17.6136C31.4565 17.6217 31.8646 17.6217 32.2726 17.6136C33.8479 17.5814 35.1374 18.057 36.0679 18.9923C38.043 20.9836 37.9369 24.5068 37.9369 24.539C37.9287 24.7728 38.0185 24.9905 38.1899 25.1518C38.2552 25.2163 38.3368 25.2727 38.4266 25.3049C38.4429 25.3614 38.4674 25.4501 38.4837 25.571C38.5572 25.9822 38.5409 26.4337 38.4348 26.869C38.247 27.6591 38.0348 27.9332 37.9614 28.0138C37.7084 28.0703 37.488 28.2396 37.3819 28.4895C35.0884 33.867 31.8319 33.875 31.685 33.867C31.6687 33.867 31.6442 33.867 31.6279 33.867C31.4973 33.867 28.2244 33.8831 25.931 28.4895C25.8249 28.2476 25.6126 28.0703 25.3515 28.0138C25.278 27.9332 25.0658 27.6591 24.8781 26.8771C24.7883 26.4337 24.772 25.9822 24.8373 25.571Z" fill="#5659FE"/>
</g>
<defs>
<clipPath id="clip0_1_13977">
<rect width="64" height="64" fill="white"/>
</clipPath>
</defs>
</svg>
