<svg width="18" height="15" viewBox="0 0 18 15" fill="none" xmlns="http://www.w3.org/2000/svg">
<path d="M1.35 0C0.843615 0 0.45 0.393615 0.45 0.9C0.45 1.40639 0.843615 1.8 1.35 1.8H15.3V0H1.35ZM0 2.08827V13.725C0 14.3483 0.50175 14.85 1.125 14.85H16.875C17.4982 14.85 18 14.3483 18 13.725V11.7H11.025C10.4095 11.7 9.9 11.1905 9.9 10.575V6.975C9.9 6.35953 10.4095 5.85 11.025 5.85H18V3.825C18 3.20175 17.4982 2.7 16.875 2.7L1.13906 2.68605C0.688208 2.63232 0.286335 2.41387 0 2.08827ZM11.025 6.75C10.8926 6.75 10.8 6.84256 10.8 6.975V10.575C10.8 10.7074 10.8926 10.8 11.025 10.8H18V6.75H11.025ZM13.275 8.1C13.6478 8.1 13.95 8.4022 13.95 8.775C13.95 9.1478 13.6478 9.45 13.275 9.45C12.9022 9.45 12.6 9.1478 12.6 8.775C12.6 8.4022 12.9022 8.1 13.275 8.1Z" fill="#5659FE"/>
</svg>
